<?xml version="1.0" encoding="UTF-8"?>
<svg xmlns="http://www.w3.org/2000/svg" viewBox="0 0 1053 120">
  <defs>
    <linearGradient id="g" x1="12" y1="0" x2="1041" y2="0" gradientUnits="userSpaceOnUse" color-interpolation="linearRGB">
      <stop offset="0%" stop-color="#c0eade"/>
      <stop offset="6%" stop-color="#ace1dc"/>
      <stop offset="20%" stop-color="#99d8db"/>
      <stop offset="39%" stop-color="#89cedc"/>
      <stop offset="61%" stop-color="#7bc3dd"/>
      <stop offset="80%" stop-color="#73b7de"/>
      <stop offset="94%" stop-color="#70a9de"/>
      <stop offset="100%" stop-color="#729bdc"/>
    </linearGradient>
    <linearGradient id="gs" x1="12" y1="0" x2="1041" y2="0" gradientUnits="userSpaceOnUse" color-interpolation="linearRGB">
      <stop offset="0%" stop-color="#647a73"/>
      <stop offset="6%" stop-color="#5a7672"/>
      <stop offset="20%" stop-color="#507172"/>
      <stop offset="39%" stop-color="#476b72"/>
      <stop offset="61%" stop-color="#416673"/>
      <stop offset="80%" stop-color="#3c5f73"/>
      <stop offset="94%" stop-color="#3a5873"/>
      <stop offset="100%" stop-color="#3b5172"/>
    </linearGradient>
  </defs>
  <g fill="url(#g)">
    <rect x="33" y="12" width="7" height="12"/>
    <rect x="40" y="12" width="7" height="12"/>
    <rect x="47" y="12" width="7" height="12"/>
    <rect x="54" y="12" width="7" height="12"/>
    <rect x="61" y="12" width="7" height="12"/>
    <rect x="68" y="12" width="7" height="12"/>
    <rect x="75" y="12" width="7" height="12"/>
    <rect x="82" y="12" width="7" height="12"/>
    <rect x="89" y="12" width="7" height="12"/>
    <rect x="215" y="12" width="7" height="12"/>
    <rect x="222" y="12" width="7" height="12"/>
    <rect x="229" y="12" width="7" height="12"/>
    <rect x="236" y="12" width="7" height="12"/>
    <rect x="243" y="12" width="7" height="12"/>
    <rect x="446" y="12" width="7" height="12"/>
    <rect x="453" y="12" width="7" height="12"/>
    <rect x="460" y="12" width="7" height="12"/>
    <rect x="467" y="12" width="7" height="12"/>
    <rect x="474" y="12" width="7" height="12"/>
    <rect x="481" y="12" width="7" height="12"/>
    <rect x="488" y="12" width="7" height="12"/>
    <rect x="495" y="12" width="7" height="12"/>
    <rect x="502" y="12" width="7" height="12"/>
    <rect x="509" y="12" width="7" height="12"/>
    <rect x="516" y="12" width="7" height="12"/>
    <rect x="789" y="12" width="7" height="12"/>
    <rect x="796" y="12" width="7" height="12"/>
    <rect x="803" y="12" width="7" height="12"/>
    <rect x="859" y="12" width="7" height="12"/>
    <rect x="866" y="12" width="7" height="12"/>
    <rect x="873" y="12" width="7" height="12"/>
    <rect x="880" y="12" width="7" height="12"/>
    <rect x="887" y="12" width="7" height="12"/>
    <rect x="26" y="24" width="7" height="12"/>
    <rect x="33" y="24" width="7" height="12"/>
    <rect x="40" y="24" width="7" height="12"/>
    <rect x="47" y="24" width="7" height="12"/>
    <rect x="54" y="24" width="7" height="12"/>
    <rect x="61" y="24" width="7" height="12"/>
    <rect x="68" y="24" width="7" height="12"/>
    <rect x="75" y="24" width="7" height="12"/>
    <rect x="82" y="24" width="7" height="12"/>
    <rect x="89" y="24" width="7" height="12"/>
    <rect x="96" y="24" width="7" height="12"/>
    <rect x="208" y="24" width="7" height="12"/>
    <rect x="215" y="24" width="7" height="12"/>
    <rect x="222" y="24" width="7" height="12"/>
    <rect x="229" y="24" width="7" height="12"/>
    <rect x="236" y="24" width="7" height="12"/>
    <rect x="439" y="24" width="7" height="12"/>
    <rect x="446" y="24" width="7" height="12"/>
    <rect x="453" y="24" width="7" height="12"/>
    <rect x="460" y="24" width="7" height="12"/>
    <rect x="467" y="24" width="7" height="12"/>
    <rect x="474" y="24" width="7" height="12"/>
    <rect x="481" y="24" width="7" height="12"/>
    <rect x="488" y="24" width="7" height="12"/>
    <rect x="495" y="24" width="7" height="12"/>
    <rect x="502" y="24" width="7" height="12"/>
    <rect x="509" y="24" width="7" height="12"/>
    <rect x="516" y="24" width="7" height="12"/>
    <rect x="523" y="24" width="7" height="12"/>
    <rect x="782" y="24" width="7" height="12"/>
    <rect x="789" y="24" width="7" height="12"/>
    <rect x="796" y="24" width="7" height="12"/>
    <rect x="852" y="24" width="7" height="12"/>
    <rect x="859" y="24" width="7" height="12"/>
    <rect x="866" y="24" width="7" height="12"/>
    <rect x="873" y="24" width="7" height="12"/>
    <rect x="880" y="24" width="7" height="12"/>
    <rect x="19" y="36" width="7" height="12"/>
    <rect x="26" y="36" width="7" height="12"/>
    <rect x="33" y="36" width="7" height="12"/>
    <rect x="75" y="36" width="7" height="12"/>
    <rect x="82" y="36" width="7" height="12"/>
    <rect x="89" y="36" width="7" height="12"/>
    <rect x="124" y="36" width="7" height="12"/>
    <rect x="131" y="36" width="7" height="12"/>
    <rect x="138" y="36" width="7" height="12"/>
    <rect x="145" y="36" width="7" height="12"/>
    <rect x="152" y="36" width="7" height="12"/>
    <rect x="159" y="36" width="7" height="12"/>
    <rect x="194" y="36" width="7" height="12"/>
    <rect x="201" y="36" width="7" height="12"/>
    <rect x="208" y="36" width="7" height="12"/>
    <rect x="215" y="36" width="7" height="12"/>
    <rect x="222" y="36" width="7" height="12"/>
    <rect x="229" y="36" width="7" height="12"/>
    <rect x="236" y="36" width="7" height="12"/>
    <rect x="271" y="36" width="7" height="12"/>
    <rect x="278" y="36" width="7" height="12"/>
    <rect x="285" y="36" width="7" height="12"/>
    <rect x="292" y="36" width="7" height="12"/>
    <rect x="299" y="36" width="7" height="12"/>
    <rect x="306" y="36" width="7" height="12"/>
    <rect x="334" y="36" width="7" height="12"/>
    <rect x="341" y="36" width="7" height="12"/>
    <rect x="348" y="36" width="7" height="12"/>
    <rect x="355" y="36" width="7" height="12"/>
    <rect x="362" y="36" width="7" height="12"/>
    <rect x="376" y="36" width="7" height="12"/>
    <rect x="383" y="36" width="7" height="12"/>
    <rect x="390" y="36" width="7" height="12"/>
    <rect x="397" y="36" width="7" height="12"/>
    <rect x="404" y="36" width="7" height="12"/>
    <rect x="446" y="36" width="7" height="12"/>
    <rect x="453" y="36" width="7" height="12"/>
    <rect x="460" y="36" width="7" height="12"/>
    <rect x="467" y="36" width="7" height="12"/>
    <rect x="502" y="36" width="7" height="12"/>
    <rect x="509" y="36" width="7" height="12"/>
    <rect x="516" y="36" width="7" height="12"/>
    <rect x="523" y="36" width="7" height="12"/>
    <rect x="544" y="36" width="7" height="12"/>
    <rect x="551" y="36" width="7" height="12"/>
    <rect x="558" y="36" width="7" height="12"/>
    <rect x="565" y="36" width="7" height="12"/>
    <rect x="572" y="36" width="7" height="12"/>
    <rect x="579" y="36" width="7" height="12"/>
    <rect x="586" y="36" width="7" height="12"/>
    <rect x="593" y="36" width="7" height="12"/>
    <rect x="628" y="36" width="7" height="12"/>
    <rect x="635" y="36" width="7" height="12"/>
    <rect x="642" y="36" width="7" height="12"/>
    <rect x="649" y="36" width="7" height="12"/>
    <rect x="656" y="36" width="7" height="12"/>
    <rect x="663" y="36" width="7" height="12"/>
    <rect x="691" y="36" width="7" height="12"/>
    <rect x="698" y="36" width="7" height="12"/>
    <rect x="705" y="36" width="7" height="12"/>
    <rect x="712" y="36" width="7" height="12"/>
    <rect x="719" y="36" width="7" height="12"/>
    <rect x="733" y="36" width="7" height="12"/>
    <rect x="740" y="36" width="7" height="12"/>
    <rect x="747" y="36" width="7" height="12"/>
    <rect x="754" y="36" width="7" height="12"/>
    <rect x="761" y="36" width="7" height="12"/>
    <rect x="782" y="36" width="7" height="12"/>
    <rect x="789" y="36" width="7" height="12"/>
    <rect x="796" y="36" width="7" height="12"/>
    <rect x="803" y="36" width="7" height="12"/>
    <rect x="838" y="36" width="7" height="12"/>
    <rect x="845" y="36" width="7" height="12"/>
    <rect x="852" y="36" width="7" height="12"/>
    <rect x="859" y="36" width="7" height="12"/>
    <rect x="866" y="36" width="7" height="12"/>
    <rect x="873" y="36" width="7" height="12"/>
    <rect x="880" y="36" width="7" height="12"/>
    <rect x="915" y="36" width="7" height="12"/>
    <rect x="922" y="36" width="7" height="12"/>
    <rect x="929" y="36" width="7" height="12"/>
    <rect x="936" y="36" width="7" height="12"/>
    <rect x="943" y="36" width="7" height="12"/>
    <rect x="950" y="36" width="7" height="12"/>
    <rect x="978" y="36" width="7" height="12"/>
    <rect x="985" y="36" width="7" height="12"/>
    <rect x="992" y="36" width="7" height="12"/>
    <rect x="999" y="36" width="7" height="12"/>
    <rect x="1006" y="36" width="7" height="12"/>
    <rect x="1013" y="36" width="7" height="12"/>
    <rect x="1020" y="36" width="7" height="12"/>
    <rect x="1027" y="36" width="7" height="12"/>
    <rect x="12" y="48" width="7" height="12"/>
    <rect x="19" y="48" width="7" height="12"/>
    <rect x="26" y="48" width="7" height="12"/>
    <rect x="33" y="48" width="7" height="12"/>
    <rect x="117" y="48" width="7" height="12"/>
    <rect x="124" y="48" width="7" height="12"/>
    <rect x="131" y="48" width="7" height="12"/>
    <rect x="138" y="48" width="7" height="12"/>
    <rect x="145" y="48" width="7" height="12"/>
    <rect x="152" y="48" width="7" height="12"/>
    <rect x="159" y="48" width="7" height="12"/>
    <rect x="166" y="48" width="7" height="12"/>
    <rect x="187" y="48" width="7" height="12"/>
    <rect x="194" y="48" width="7" height="12"/>
    <rect x="201" y="48" width="7" height="12"/>
    <rect x="208" y="48" width="7" height="12"/>
    <rect x="215" y="48" width="7" height="12"/>
    <rect x="222" y="48" width="7" height="12"/>
    <rect x="229" y="48" width="7" height="12"/>
    <rect x="236" y="48" width="7" height="12"/>
    <rect x="264" y="48" width="7" height="12"/>
    <rect x="271" y="48" width="7" height="12"/>
    <rect x="278" y="48" width="7" height="12"/>
    <rect x="285" y="48" width="7" height="12"/>
    <rect x="292" y="48" width="7" height="12"/>
    <rect x="299" y="48" width="7" height="12"/>
    <rect x="306" y="48" width="7" height="12"/>
    <rect x="313" y="48" width="7" height="12"/>
    <rect x="327" y="48" width="7" height="12"/>
    <rect x="334" y="48" width="7" height="12"/>
    <rect x="341" y="48" width="7" height="12"/>
    <rect x="348" y="48" width="7" height="12"/>
    <rect x="355" y="48" width="7" height="12"/>
    <rect x="369" y="48" width="7" height="12"/>
    <rect x="376" y="48" width="7" height="12"/>
    <rect x="383" y="48" width="7" height="12"/>
    <rect x="390" y="48" width="7" height="12"/>
    <rect x="397" y="48" width="7" height="12"/>
    <rect x="446" y="48" width="7" height="12"/>
    <rect x="453" y="48" width="7" height="12"/>
    <rect x="460" y="48" width="7" height="12"/>
    <rect x="467" y="48" width="7" height="12"/>
    <rect x="474" y="48" width="7" height="12"/>
    <rect x="481" y="48" width="7" height="12"/>
    <rect x="488" y="48" width="7" height="12"/>
    <rect x="495" y="48" width="7" height="12"/>
    <rect x="502" y="48" width="7" height="12"/>
    <rect x="509" y="48" width="7" height="12"/>
    <rect x="516" y="48" width="7" height="12"/>
    <rect x="537" y="48" width="7" height="12"/>
    <rect x="544" y="48" width="7" height="12"/>
    <rect x="551" y="48" width="7" height="12"/>
    <rect x="558" y="48" width="7" height="12"/>
    <rect x="565" y="48" width="7" height="12"/>
    <rect x="572" y="48" width="7" height="12"/>
    <rect x="579" y="48" width="7" height="12"/>
    <rect x="586" y="48" width="7" height="12"/>
    <rect x="593" y="48" width="7" height="12"/>
    <rect x="600" y="48" width="7" height="12"/>
    <rect x="621" y="48" width="7" height="12"/>
    <rect x="628" y="48" width="7" height="12"/>
    <rect x="635" y="48" width="7" height="12"/>
    <rect x="642" y="48" width="7" height="12"/>
    <rect x="649" y="48" width="7" height="12"/>
    <rect x="656" y="48" width="7" height="12"/>
    <rect x="663" y="48" width="7" height="12"/>
    <rect x="670" y="48" width="7" height="12"/>
    <rect x="684" y="48" width="7" height="12"/>
    <rect x="691" y="48" width="7" height="12"/>
    <rect x="698" y="48" width="7" height="12"/>
    <rect x="705" y="48" width="7" height="12"/>
    <rect x="712" y="48" width="7" height="12"/>
    <rect x="726" y="48" width="7" height="12"/>
    <rect x="733" y="48" width="7" height="12"/>
    <rect x="740" y="48" width="7" height="12"/>
    <rect x="747" y="48" width="7" height="12"/>
    <rect x="754" y="48" width="7" height="12"/>
    <rect x="775" y="48" width="7" height="12"/>
    <rect x="782" y="48" width="7" height="12"/>
    <rect x="789" y="48" width="7" height="12"/>
    <rect x="796" y="48" width="7" height="12"/>
    <rect x="803" y="48" width="7" height="12"/>
    <rect x="831" y="48" width="7" height="12"/>
    <rect x="838" y="48" width="7" height="12"/>
    <rect x="845" y="48" width="7" height="12"/>
    <rect x="852" y="48" width="7" height="12"/>
    <rect x="859" y="48" width="7" height="12"/>
    <rect x="866" y="48" width="7" height="12"/>
    <rect x="873" y="48" width="7" height="12"/>
    <rect x="880" y="48" width="7" height="12"/>
    <rect x="908" y="48" width="7" height="12"/>
    <rect x="915" y="48" width="7" height="12"/>
    <rect x="922" y="48" width="7" height="12"/>
    <rect x="929" y="48" width="7" height="12"/>
    <rect x="936" y="48" width="7" height="12"/>
    <rect x="943" y="48" width="7" height="12"/>
    <rect x="950" y="48" width="7" height="12"/>
    <rect x="957" y="48" width="7" height="12"/>
    <rect x="971" y="48" width="7" height="12"/>
    <rect x="978" y="48" width="7" height="12"/>
    <rect x="985" y="48" width="7" height="12"/>
    <rect x="992" y="48" width="7" height="12"/>
    <rect x="999" y="48" width="7" height="12"/>
    <rect x="1006" y="48" width="7" height="12"/>
    <rect x="1013" y="48" width="7" height="12"/>
    <rect x="1020" y="48" width="7" height="12"/>
    <rect x="1027" y="48" width="7" height="12"/>
    <rect x="1034" y="48" width="7" height="12"/>
    <rect x="12" y="60" width="7" height="12"/>
    <rect x="19" y="60" width="7" height="12"/>
    <rect x="26" y="60" width="7" height="12"/>
    <rect x="33" y="60" width="7" height="12"/>
    <rect x="110" y="60" width="7" height="12"/>
    <rect x="117" y="60" width="7" height="12"/>
    <rect x="124" y="60" width="7" height="12"/>
    <rect x="131" y="60" width="7" height="12"/>
    <rect x="145" y="60" width="7" height="12"/>
    <rect x="152" y="60" width="7" height="12"/>
    <rect x="159" y="60" width="7" height="12"/>
    <rect x="166" y="60" width="7" height="12"/>
    <rect x="180" y="60" width="7" height="12"/>
    <rect x="187" y="60" width="7" height="12"/>
    <rect x="194" y="60" width="7" height="12"/>
    <rect x="201" y="60" width="7" height="12"/>
    <rect x="215" y="60" width="7" height="12"/>
    <rect x="222" y="60" width="7" height="12"/>
    <rect x="229" y="60" width="7" height="12"/>
    <rect x="236" y="60" width="7" height="12"/>
    <rect x="257" y="60" width="7" height="12"/>
    <rect x="264" y="60" width="7" height="12"/>
    <rect x="271" y="60" width="7" height="12"/>
    <rect x="278" y="60" width="7" height="12"/>
    <rect x="285" y="60" width="7" height="12"/>
    <rect x="292" y="60" width="7" height="12"/>
    <rect x="299" y="60" width="7" height="12"/>
    <rect x="306" y="60" width="7" height="12"/>
    <rect x="334" y="60" width="7" height="12"/>
    <rect x="341" y="60" width="7" height="12"/>
    <rect x="348" y="60" width="7" height="12"/>
    <rect x="355" y="60" width="7" height="12"/>
    <rect x="362" y="60" width="7" height="12"/>
    <rect x="369" y="60" width="7" height="12"/>
    <rect x="376" y="60" width="7" height="12"/>
    <rect x="383" y="60" width="7" height="12"/>
    <rect x="390" y="60" width="7" height="12"/>
    <rect x="446" y="60" width="7" height="12"/>
    <rect x="453" y="60" width="7" height="12"/>
    <rect x="460" y="60" width="7" height="12"/>
    <rect x="467" y="60" width="7" height="12"/>
    <rect x="474" y="60" width="7" height="12"/>
    <rect x="481" y="60" width="7" height="12"/>
    <rect x="488" y="60" width="7" height="12"/>
    <rect x="495" y="60" width="7" height="12"/>
    <rect x="502" y="60" width="7" height="12"/>
    <rect x="509" y="60" width="7" height="12"/>
    <rect x="544" y="60" width="7" height="12"/>
    <rect x="551" y="60" width="7" height="12"/>
    <rect x="558" y="60" width="7" height="12"/>
    <rect x="565" y="60" width="7" height="12"/>
    <rect x="579" y="60" width="7" height="12"/>
    <rect x="586" y="60" width="7" height="12"/>
    <rect x="593" y="60" width="7" height="12"/>
    <rect x="614" y="60" width="7" height="12"/>
    <rect x="621" y="60" width="7" height="12"/>
    <rect x="628" y="60" width="7" height="12"/>
    <rect x="635" y="60" width="7" height="12"/>
    <rect x="649" y="60" width="7" height="12"/>
    <rect x="656" y="60" width="7" height="12"/>
    <rect x="663" y="60" width="7" height="12"/>
    <rect x="670" y="60" width="7" height="12"/>
    <rect x="691" y="60" width="7" height="12"/>
    <rect x="698" y="60" width="7" height="12"/>
    <rect x="705" y="60" width="7" height="12"/>
    <rect x="712" y="60" width="7" height="12"/>
    <rect x="733" y="60" width="7" height="12"/>
    <rect x="740" y="60" width="7" height="12"/>
    <rect x="747" y="60" width="7" height="12"/>
    <rect x="754" y="60" width="7" height="12"/>
    <rect x="782" y="60" width="7" height="12"/>
    <rect x="789" y="60" width="7" height="12"/>
    <rect x="796" y="60" width="7" height="12"/>
    <rect x="803" y="60" width="7" height="12"/>
    <rect x="824" y="60" width="7" height="12"/>
    <rect x="831" y="60" width="7" height="12"/>
    <rect x="838" y="60" width="7" height="12"/>
    <rect x="845" y="60" width="7" height="12"/>
    <rect x="859" y="60" width="7" height="12"/>
    <rect x="866" y="60" width="7" height="12"/>
    <rect x="873" y="60" width="7" height="12"/>
    <rect x="880" y="60" width="7" height="12"/>
    <rect x="901" y="60" width="7" height="12"/>
    <rect x="908" y="60" width="7" height="12"/>
    <rect x="915" y="60" width="7" height="12"/>
    <rect x="922" y="60" width="7" height="12"/>
    <rect x="929" y="60" width="7" height="12"/>
    <rect x="936" y="60" width="7" height="12"/>
    <rect x="943" y="60" width="7" height="12"/>
    <rect x="950" y="60" width="7" height="12"/>
    <rect x="978" y="60" width="7" height="12"/>
    <rect x="985" y="60" width="7" height="12"/>
    <rect x="992" y="60" width="7" height="12"/>
    <rect x="999" y="60" width="7" height="12"/>
    <rect x="1013" y="60" width="7" height="12"/>
    <rect x="1020" y="60" width="7" height="12"/>
    <rect x="1027" y="60" width="7" height="12"/>
    <rect x="12" y="72" width="7" height="12"/>
    <rect x="19" y="72" width="7" height="12"/>
    <rect x="26" y="72" width="7" height="12"/>
    <rect x="33" y="72" width="7" height="12"/>
    <rect x="40" y="72" width="7" height="12"/>
    <rect x="82" y="72" width="7" height="12"/>
    <rect x="89" y="72" width="7" height="12"/>
    <rect x="96" y="72" width="7" height="12"/>
    <rect x="110" y="72" width="7" height="12"/>
    <rect x="117" y="72" width="7" height="12"/>
    <rect x="124" y="72" width="7" height="12"/>
    <rect x="131" y="72" width="7" height="12"/>
    <rect x="145" y="72" width="7" height="12"/>
    <rect x="152" y="72" width="7" height="12"/>
    <rect x="159" y="72" width="7" height="12"/>
    <rect x="166" y="72" width="7" height="12"/>
    <rect x="180" y="72" width="7" height="12"/>
    <rect x="187" y="72" width="7" height="12"/>
    <rect x="194" y="72" width="7" height="12"/>
    <rect x="201" y="72" width="7" height="12"/>
    <rect x="215" y="72" width="7" height="12"/>
    <rect x="222" y="72" width="7" height="12"/>
    <rect x="229" y="72" width="7" height="12"/>
    <rect x="236" y="72" width="7" height="12"/>
    <rect x="257" y="72" width="7" height="12"/>
    <rect x="264" y="72" width="7" height="12"/>
    <rect x="271" y="72" width="7" height="12"/>
    <rect x="278" y="72" width="7" height="12"/>
    <rect x="285" y="72" width="7" height="12"/>
    <rect x="292" y="72" width="7" height="12"/>
    <rect x="299" y="72" width="7" height="12"/>
    <rect x="341" y="72" width="7" height="12"/>
    <rect x="348" y="72" width="7" height="12"/>
    <rect x="355" y="72" width="7" height="12"/>
    <rect x="362" y="72" width="7" height="12"/>
    <rect x="369" y="72" width="7" height="12"/>
    <rect x="376" y="72" width="7" height="12"/>
    <rect x="383" y="72" width="7" height="12"/>
    <rect x="390" y="72" width="7" height="12"/>
    <rect x="397" y="72" width="7" height="12"/>
    <rect x="446" y="72" width="7" height="12"/>
    <rect x="453" y="72" width="7" height="12"/>
    <rect x="460" y="72" width="7" height="12"/>
    <rect x="467" y="72" width="7" height="12"/>
    <rect x="544" y="72" width="7" height="12"/>
    <rect x="551" y="72" width="7" height="12"/>
    <rect x="558" y="72" width="7" height="12"/>
    <rect x="565" y="72" width="7" height="12"/>
    <rect x="614" y="72" width="7" height="12"/>
    <rect x="621" y="72" width="7" height="12"/>
    <rect x="628" y="72" width="7" height="12"/>
    <rect x="635" y="72" width="7" height="12"/>
    <rect x="649" y="72" width="7" height="12"/>
    <rect x="656" y="72" width="7" height="12"/>
    <rect x="663" y="72" width="7" height="12"/>
    <rect x="670" y="72" width="7" height="12"/>
    <rect x="691" y="72" width="7" height="12"/>
    <rect x="698" y="72" width="7" height="12"/>
    <rect x="705" y="72" width="7" height="12"/>
    <rect x="712" y="72" width="7" height="12"/>
    <rect x="719" y="72" width="7" height="12"/>
    <rect x="733" y="72" width="7" height="12"/>
    <rect x="740" y="72" width="7" height="12"/>
    <rect x="747" y="72" width="7" height="12"/>
    <rect x="782" y="72" width="7" height="12"/>
    <rect x="789" y="72" width="7" height="12"/>
    <rect x="796" y="72" width="7" height="12"/>
    <rect x="803" y="72" width="7" height="12"/>
    <rect x="824" y="72" width="7" height="12"/>
    <rect x="831" y="72" width="7" height="12"/>
    <rect x="838" y="72" width="7" height="12"/>
    <rect x="845" y="72" width="7" height="12"/>
    <rect x="859" y="72" width="7" height="12"/>
    <rect x="866" y="72" width="7" height="12"/>
    <rect x="873" y="72" width="7" height="12"/>
    <rect x="880" y="72" width="7" height="12"/>
    <rect x="901" y="72" width="7" height="12"/>
    <rect x="908" y="72" width="7" height="12"/>
    <rect x="915" y="72" width="7" height="12"/>
    <rect x="922" y="72" width="7" height="12"/>
    <rect x="929" y="72" width="7" height="12"/>
    <rect x="936" y="72" width="7" height="12"/>
    <rect x="943" y="72" width="7" height="12"/>
    <rect x="978" y="72" width="7" height="12"/>
    <rect x="985" y="72" width="7" height="12"/>
    <rect x="992" y="72" width="7" height="12"/>
    <rect x="999" y="72" width="7" height="12"/>
    <rect x="19" y="84" width="7" height="12"/>
    <rect x="26" y="84" width="7" height="12"/>
    <rect x="33" y="84" width="7" height="12"/>
    <rect x="40" y="84" width="7" height="12"/>
    <rect x="47" y="84" width="7" height="12"/>
    <rect x="54" y="84" width="7" height="12"/>
    <rect x="61" y="84" width="7" height="12"/>
    <rect x="68" y="84" width="7" height="12"/>
    <rect x="75" y="84" width="7" height="12"/>
    <rect x="82" y="84" width="7" height="12"/>
    <rect x="89" y="84" width="7" height="12"/>
    <rect x="110" y="84" width="7" height="12"/>
    <rect x="117" y="84" width="7" height="12"/>
    <rect x="124" y="84" width="7" height="12"/>
    <rect x="131" y="84" width="7" height="12"/>
    <rect x="138" y="84" width="7" height="12"/>
    <rect x="145" y="84" width="7" height="12"/>
    <rect x="152" y="84" width="7" height="12"/>
    <rect x="159" y="84" width="7" height="12"/>
    <rect x="180" y="84" width="7" height="12"/>
    <rect x="187" y="84" width="7" height="12"/>
    <rect x="194" y="84" width="7" height="12"/>
    <rect x="201" y="84" width="7" height="12"/>
    <rect x="208" y="84" width="7" height="12"/>
    <rect x="215" y="84" width="7" height="12"/>
    <rect x="222" y="84" width="7" height="12"/>
    <rect x="229" y="84" width="7" height="12"/>
    <rect x="236" y="84" width="7" height="12"/>
    <rect x="243" y="84" width="7" height="12"/>
    <rect x="257" y="84" width="7" height="12"/>
    <rect x="264" y="84" width="7" height="12"/>
    <rect x="271" y="84" width="7" height="12"/>
    <rect x="278" y="84" width="7" height="12"/>
    <rect x="285" y="84" width="7" height="12"/>
    <rect x="292" y="84" width="7" height="12"/>
    <rect x="299" y="84" width="7" height="12"/>
    <rect x="306" y="84" width="7" height="12"/>
    <rect x="334" y="84" width="7" height="12"/>
    <rect x="341" y="84" width="7" height="12"/>
    <rect x="348" y="84" width="7" height="12"/>
    <rect x="355" y="84" width="7" height="12"/>
    <rect x="362" y="84" width="7" height="12"/>
    <rect x="376" y="84" width="7" height="12"/>
    <rect x="383" y="84" width="7" height="12"/>
    <rect x="390" y="84" width="7" height="12"/>
    <rect x="397" y="84" width="7" height="12"/>
    <rect x="404" y="84" width="7" height="12"/>
    <rect x="446" y="84" width="7" height="12"/>
    <rect x="453" y="84" width="7" height="12"/>
    <rect x="460" y="84" width="7" height="12"/>
    <rect x="467" y="84" width="7" height="12"/>
    <rect x="474" y="84" width="7" height="12"/>
    <rect x="544" y="84" width="7" height="12"/>
    <rect x="551" y="84" width="7" height="12"/>
    <rect x="558" y="84" width="7" height="12"/>
    <rect x="565" y="84" width="7" height="12"/>
    <rect x="572" y="84" width="7" height="12"/>
    <rect x="614" y="84" width="7" height="12"/>
    <rect x="621" y="84" width="7" height="12"/>
    <rect x="628" y="84" width="7" height="12"/>
    <rect x="635" y="84" width="7" height="12"/>
    <rect x="642" y="84" width="7" height="12"/>
    <rect x="649" y="84" width="7" height="12"/>
    <rect x="656" y="84" width="7" height="12"/>
    <rect x="663" y="84" width="7" height="12"/>
    <rect x="698" y="84" width="7" height="12"/>
    <rect x="705" y="84" width="7" height="12"/>
    <rect x="712" y="84" width="7" height="12"/>
    <rect x="719" y="84" width="7" height="12"/>
    <rect x="726" y="84" width="7" height="12"/>
    <rect x="733" y="84" width="7" height="12"/>
    <rect x="740" y="84" width="7" height="12"/>
    <rect x="782" y="84" width="7" height="12"/>
    <rect x="789" y="84" width="7" height="12"/>
    <rect x="796" y="84" width="7" height="12"/>
    <rect x="803" y="84" width="7" height="12"/>
    <rect x="810" y="84" width="7" height="12"/>
    <rect x="824" y="84" width="7" height="12"/>
    <rect x="831" y="84" width="7" height="12"/>
    <rect x="838" y="84" width="7" height="12"/>
    <rect x="845" y="84" width="7" height="12"/>
    <rect x="852" y="84" width="7" height="12"/>
    <rect x="859" y="84" width="7" height="12"/>
    <rect x="866" y="84" width="7" height="12"/>
    <rect x="873" y="84" width="7" height="12"/>
    <rect x="880" y="84" width="7" height="12"/>
    <rect x="887" y="84" width="7" height="12"/>
    <rect x="901" y="84" width="7" height="12"/>
    <rect x="908" y="84" width="7" height="12"/>
    <rect x="915" y="84" width="7" height="12"/>
    <rect x="922" y="84" width="7" height="12"/>
    <rect x="929" y="84" width="7" height="12"/>
    <rect x="936" y="84" width="7" height="12"/>
    <rect x="943" y="84" width="7" height="12"/>
    <rect x="950" y="84" width="7" height="12"/>
    <rect x="978" y="84" width="7" height="12"/>
    <rect x="985" y="84" width="7" height="12"/>
    <rect x="992" y="84" width="7" height="12"/>
    <rect x="999" y="84" width="7" height="12"/>
    <rect x="1006" y="84" width="7" height="12"/>
    <rect x="26" y="96" width="7" height="12"/>
    <rect x="33" y="96" width="7" height="12"/>
    <rect x="40" y="96" width="7" height="12"/>
    <rect x="47" y="96" width="7" height="12"/>
    <rect x="54" y="96" width="7" height="12"/>
    <rect x="61" y="96" width="7" height="12"/>
    <rect x="68" y="96" width="7" height="12"/>
    <rect x="75" y="96" width="7" height="12"/>
    <rect x="82" y="96" width="7" height="12"/>
    <rect x="117" y="96" width="7" height="12"/>
    <rect x="124" y="96" width="7" height="12"/>
    <rect x="131" y="96" width="7" height="12"/>
    <rect x="138" y="96" width="7" height="12"/>
    <rect x="145" y="96" width="7" height="12"/>
    <rect x="152" y="96" width="7" height="12"/>
    <rect x="187" y="96" width="7" height="12"/>
    <rect x="194" y="96" width="7" height="12"/>
    <rect x="201" y="96" width="7" height="12"/>
    <rect x="208" y="96" width="7" height="12"/>
    <rect x="215" y="96" width="7" height="12"/>
    <rect x="222" y="96" width="7" height="12"/>
    <rect x="229" y="96" width="7" height="12"/>
    <rect x="236" y="96" width="7" height="12"/>
    <rect x="264" y="96" width="7" height="12"/>
    <rect x="271" y="96" width="7" height="12"/>
    <rect x="278" y="96" width="7" height="12"/>
    <rect x="285" y="96" width="7" height="12"/>
    <rect x="292" y="96" width="7" height="12"/>
    <rect x="299" y="96" width="7" height="12"/>
    <rect x="327" y="96" width="7" height="12"/>
    <rect x="334" y="96" width="7" height="12"/>
    <rect x="341" y="96" width="7" height="12"/>
    <rect x="348" y="96" width="7" height="12"/>
    <rect x="355" y="96" width="7" height="12"/>
    <rect x="369" y="96" width="7" height="12"/>
    <rect x="376" y="96" width="7" height="12"/>
    <rect x="383" y="96" width="7" height="12"/>
    <rect x="390" y="96" width="7" height="12"/>
    <rect x="397" y="96" width="7" height="12"/>
    <rect x="439" y="96" width="7" height="12"/>
    <rect x="446" y="96" width="7" height="12"/>
    <rect x="453" y="96" width="7" height="12"/>
    <rect x="460" y="96" width="7" height="12"/>
    <rect x="467" y="96" width="7" height="12"/>
    <rect x="537" y="96" width="7" height="12"/>
    <rect x="544" y="96" width="7" height="12"/>
    <rect x="551" y="96" width="7" height="12"/>
    <rect x="558" y="96" width="7" height="12"/>
    <rect x="565" y="96" width="7" height="12"/>
    <rect x="621" y="96" width="7" height="12"/>
    <rect x="628" y="96" width="7" height="12"/>
    <rect x="635" y="96" width="7" height="12"/>
    <rect x="642" y="96" width="7" height="12"/>
    <rect x="649" y="96" width="7" height="12"/>
    <rect x="656" y="96" width="7" height="12"/>
    <rect x="705" y="96" width="7" height="12"/>
    <rect x="712" y="96" width="7" height="12"/>
    <rect x="719" y="96" width="7" height="12"/>
    <rect x="726" y="96" width="7" height="12"/>
    <rect x="733" y="96" width="7" height="12"/>
    <rect x="775" y="96" width="7" height="12"/>
    <rect x="782" y="96" width="7" height="12"/>
    <rect x="789" y="96" width="7" height="12"/>
    <rect x="796" y="96" width="7" height="12"/>
    <rect x="803" y="96" width="7" height="12"/>
    <rect x="831" y="96" width="7" height="12"/>
    <rect x="838" y="96" width="7" height="12"/>
    <rect x="845" y="96" width="7" height="12"/>
    <rect x="852" y="96" width="7" height="12"/>
    <rect x="859" y="96" width="7" height="12"/>
    <rect x="866" y="96" width="7" height="12"/>
    <rect x="873" y="96" width="7" height="12"/>
    <rect x="880" y="96" width="7" height="12"/>
    <rect x="908" y="96" width="7" height="12"/>
    <rect x="915" y="96" width="7" height="12"/>
    <rect x="922" y="96" width="7" height="12"/>
    <rect x="929" y="96" width="7" height="12"/>
    <rect x="936" y="96" width="7" height="12"/>
    <rect x="943" y="96" width="7" height="12"/>
    <rect x="971" y="96" width="7" height="12"/>
    <rect x="978" y="96" width="7" height="12"/>
    <rect x="985" y="96" width="7" height="12"/>
    <rect x="992" y="96" width="7" height="12"/>
    <rect x="999" y="96" width="7" height="12"/>
  </g>
  <g fill="url(#gs)">
    <rect x="47" y="24" width="7" height="12"/>
    <rect x="54" y="24" width="7" height="12"/>
    <rect x="61" y="24" width="7" height="12"/>
    <rect x="68" y="24" width="7" height="12"/>
    <rect x="75" y="24" width="7" height="12"/>
    <rect x="208" y="24" width="7" height="12"/>
    <rect x="215" y="24" width="7" height="12"/>
    <rect x="439" y="24" width="7" height="12"/>
    <rect x="446" y="24" width="7" height="12"/>
    <rect x="474" y="24" width="7" height="12"/>
    <rect x="481" y="24" width="7" height="12"/>
    <rect x="488" y="24" width="7" height="12"/>
    <rect x="495" y="24" width="7" height="12"/>
    <rect x="502" y="24" width="7" height="12"/>
    <rect x="782" y="24" width="7" height="12"/>
    <rect x="789" y="24" width="7" height="12"/>
    <rect x="796" y="24" width="7" height="12"/>
    <rect x="852" y="24" width="7" height="12"/>
    <rect x="859" y="24" width="7" height="12"/>
    <rect x="75" y="36" width="7" height="12"/>
    <rect x="82" y="36" width="7" height="12"/>
    <rect x="89" y="36" width="7" height="12"/>
    <rect x="446" y="36" width="7" height="12"/>
    <rect x="502" y="36" width="7" height="12"/>
    <rect x="12" y="48" width="7" height="12"/>
    <rect x="138" y="48" width="7" height="12"/>
    <rect x="145" y="48" width="7" height="12"/>
    <rect x="208" y="48" width="7" height="12"/>
    <rect x="215" y="48" width="7" height="12"/>
    <rect x="285" y="48" width="7" height="12"/>
    <rect x="292" y="48" width="7" height="12"/>
    <rect x="327" y="48" width="7" height="12"/>
    <rect x="334" y="48" width="7" height="12"/>
    <rect x="369" y="48" width="7" height="12"/>
    <rect x="376" y="48" width="7" height="12"/>
    <rect x="446" y="48" width="7" height="12"/>
    <rect x="537" y="48" width="7" height="12"/>
    <rect x="544" y="48" width="7" height="12"/>
    <rect x="572" y="48" width="7" height="12"/>
    <rect x="579" y="48" width="7" height="12"/>
    <rect x="642" y="48" width="7" height="12"/>
    <rect x="649" y="48" width="7" height="12"/>
    <rect x="684" y="48" width="7" height="12"/>
    <rect x="691" y="48" width="7" height="12"/>
    <rect x="726" y="48" width="7" height="12"/>
    <rect x="733" y="48" width="7" height="12"/>
    <rect x="775" y="48" width="7" height="12"/>
    <rect x="782" y="48" width="7" height="12"/>
    <rect x="852" y="48" width="7" height="12"/>
    <rect x="859" y="48" width="7" height="12"/>
    <rect x="929" y="48" width="7" height="12"/>
    <rect x="936" y="48" width="7" height="12"/>
    <rect x="971" y="48" width="7" height="12"/>
    <rect x="978" y="48" width="7" height="12"/>
    <rect x="1006" y="48" width="7" height="12"/>
    <rect x="1013" y="48" width="7" height="12"/>
    <rect x="12" y="60" width="7" height="12"/>
    <rect x="110" y="60" width="7" height="12"/>
    <rect x="145" y="60" width="7" height="12"/>
    <rect x="180" y="60" width="7" height="12"/>
    <rect x="215" y="60" width="7" height="12"/>
    <rect x="257" y="60" width="7" height="12"/>
    <rect x="334" y="60" width="7" height="12"/>
    <rect x="341" y="60" width="7" height="12"/>
    <rect x="348" y="60" width="7" height="12"/>
    <rect x="390" y="60" width="7" height="12"/>
    <rect x="446" y="60" width="7" height="12"/>
    <rect x="474" y="60" width="7" height="12"/>
    <rect x="481" y="60" width="7" height="12"/>
    <rect x="488" y="60" width="7" height="12"/>
    <rect x="495" y="60" width="7" height="12"/>
    <rect x="502" y="60" width="7" height="12"/>
    <rect x="509" y="60" width="7" height="12"/>
    <rect x="544" y="60" width="7" height="12"/>
    <rect x="579" y="60" width="7" height="12"/>
    <rect x="586" y="60" width="7" height="12"/>
    <rect x="593" y="60" width="7" height="12"/>
    <rect x="614" y="60" width="7" height="12"/>
    <rect x="649" y="60" width="7" height="12"/>
    <rect x="691" y="60" width="7" height="12"/>
    <rect x="733" y="60" width="7" height="12"/>
    <rect x="782" y="60" width="7" height="12"/>
    <rect x="824" y="60" width="7" height="12"/>
    <rect x="859" y="60" width="7" height="12"/>
    <rect x="901" y="60" width="7" height="12"/>
    <rect x="978" y="60" width="7" height="12"/>
    <rect x="1013" y="60" width="7" height="12"/>
    <rect x="1020" y="60" width="7" height="12"/>
    <rect x="1027" y="60" width="7" height="12"/>
    <rect x="12" y="72" width="7" height="12"/>
    <rect x="19" y="72" width="7" height="12"/>
    <rect x="110" y="72" width="7" height="12"/>
    <rect x="145" y="72" width="7" height="12"/>
    <rect x="180" y="72" width="7" height="12"/>
    <rect x="215" y="72" width="7" height="12"/>
    <rect x="257" y="72" width="7" height="12"/>
    <rect x="285" y="72" width="7" height="12"/>
    <rect x="292" y="72" width="7" height="12"/>
    <rect x="299" y="72" width="7" height="12"/>
    <rect x="362" y="72" width="7" height="12"/>
    <rect x="369" y="72" width="7" height="12"/>
    <rect x="376" y="72" width="7" height="12"/>
    <rect x="446" y="72" width="7" height="12"/>
    <rect x="544" y="72" width="7" height="12"/>
    <rect x="614" y="72" width="7" height="12"/>
    <rect x="649" y="72" width="7" height="12"/>
    <rect x="691" y="72" width="7" height="12"/>
    <rect x="698" y="72" width="7" height="12"/>
    <rect x="782" y="72" width="7" height="12"/>
    <rect x="824" y="72" width="7" height="12"/>
    <rect x="859" y="72" width="7" height="12"/>
    <rect x="901" y="72" width="7" height="12"/>
    <rect x="929" y="72" width="7" height="12"/>
    <rect x="936" y="72" width="7" height="12"/>
    <rect x="943" y="72" width="7" height="12"/>
    <rect x="978" y="72" width="7" height="12"/>
    <rect x="19" y="84" width="7" height="12"/>
    <rect x="26" y="84" width="7" height="12"/>
    <rect x="110" y="84" width="7" height="12"/>
    <rect x="117" y="84" width="7" height="12"/>
    <rect x="180" y="84" width="7" height="12"/>
    <rect x="187" y="84" width="7" height="12"/>
    <rect x="257" y="84" width="7" height="12"/>
    <rect x="264" y="84" width="7" height="12"/>
    <rect x="614" y="84" width="7" height="12"/>
    <rect x="621" y="84" width="7" height="12"/>
    <rect x="698" y="84" width="7" height="12"/>
    <rect x="705" y="84" width="7" height="12"/>
    <rect x="824" y="84" width="7" height="12"/>
    <rect x="831" y="84" width="7" height="12"/>
    <rect x="901" y="84" width="7" height="12"/>
    <rect x="908" y="84" width="7" height="12"/>
    <rect x="26" y="96" width="7" height="12"/>
    <rect x="33" y="96" width="7" height="12"/>
    <rect x="40" y="96" width="7" height="12"/>
    <rect x="47" y="96" width="7" height="12"/>
    <rect x="54" y="96" width="7" height="12"/>
    <rect x="61" y="96" width="7" height="12"/>
    <rect x="68" y="96" width="7" height="12"/>
    <rect x="75" y="96" width="7" height="12"/>
    <rect x="82" y="96" width="7" height="12"/>
    <rect x="117" y="96" width="7" height="12"/>
    <rect x="124" y="96" width="7" height="12"/>
    <rect x="131" y="96" width="7" height="12"/>
    <rect x="138" y="96" width="7" height="12"/>
    <rect x="145" y="96" width="7" height="12"/>
    <rect x="152" y="96" width="7" height="12"/>
    <rect x="187" y="96" width="7" height="12"/>
    <rect x="194" y="96" width="7" height="12"/>
    <rect x="201" y="96" width="7" height="12"/>
    <rect x="208" y="96" width="7" height="12"/>
    <rect x="215" y="96" width="7" height="12"/>
    <rect x="222" y="96" width="7" height="12"/>
    <rect x="229" y="96" width="7" height="12"/>
    <rect x="236" y="96" width="7" height="12"/>
    <rect x="264" y="96" width="7" height="12"/>
    <rect x="271" y="96" width="7" height="12"/>
    <rect x="278" y="96" width="7" height="12"/>
    <rect x="285" y="96" width="7" height="12"/>
    <rect x="292" y="96" width="7" height="12"/>
    <rect x="299" y="96" width="7" height="12"/>
    <rect x="327" y="96" width="7" height="12"/>
    <rect x="334" y="96" width="7" height="12"/>
    <rect x="341" y="96" width="7" height="12"/>
    <rect x="348" y="96" width="7" height="12"/>
    <rect x="355" y="96" width="7" height="12"/>
    <rect x="369" y="96" width="7" height="12"/>
    <rect x="376" y="96" width="7" height="12"/>
    <rect x="383" y="96" width="7" height="12"/>
    <rect x="390" y="96" width="7" height="12"/>
    <rect x="397" y="96" width="7" height="12"/>
    <rect x="439" y="96" width="7" height="12"/>
    <rect x="446" y="96" width="7" height="12"/>
    <rect x="453" y="96" width="7" height="12"/>
    <rect x="460" y="96" width="7" height="12"/>
    <rect x="467" y="96" width="7" height="12"/>
    <rect x="537" y="96" width="7" height="12"/>
    <rect x="544" y="96" width="7" height="12"/>
    <rect x="551" y="96" width="7" height="12"/>
    <rect x="558" y="96" width="7" height="12"/>
    <rect x="565" y="96" width="7" height="12"/>
    <rect x="621" y="96" width="7" height="12"/>
    <rect x="628" y="96" width="7" height="12"/>
    <rect x="635" y="96" width="7" height="12"/>
    <rect x="642" y="96" width="7" height="12"/>
    <rect x="649" y="96" width="7" height="12"/>
    <rect x="656" y="96" width="7" height="12"/>
    <rect x="705" y="96" width="7" height="12"/>
    <rect x="712" y="96" width="7" height="12"/>
    <rect x="719" y="96" width="7" height="12"/>
    <rect x="726" y="96" width="7" height="12"/>
    <rect x="733" y="96" width="7" height="12"/>
    <rect x="775" y="96" width="7" height="12"/>
    <rect x="782" y="96" width="7" height="12"/>
    <rect x="789" y="96" width="7" height="12"/>
    <rect x="796" y="96" width="7" height="12"/>
    <rect x="803" y="96" width="7" height="12"/>
    <rect x="831" y="96" width="7" height="12"/>
    <rect x="838" y="96" width="7" height="12"/>
    <rect x="845" y="96" width="7" height="12"/>
    <rect x="852" y="96" width="7" height="12"/>
    <rect x="859" y="96" width="7" height="12"/>
    <rect x="866" y="96" width="7" height="12"/>
    <rect x="873" y="96" width="7" height="12"/>
    <rect x="880" y="96" width="7" height="12"/>
    <rect x="908" y="96" width="7" height="12"/>
    <rect x="915" y="96" width="7" height="12"/>
    <rect x="922" y="96" width="7" height="12"/>
    <rect x="929" y="96" width="7" height="12"/>
    <rect x="936" y="96" width="7" height="12"/>
    <rect x="943" y="96" width="7" height="12"/>
    <rect x="971" y="96" width="7" height="12"/>
    <rect x="978" y="96" width="7" height="12"/>
    <rect x="985" y="96" width="7" height="12"/>
    <rect x="992" y="96" width="7" height="12"/>
    <rect x="999" y="96" width="7" height="12"/>
  </g>
</svg>
